<svg xmlns="http://www.w3.org/2000/svg" viewBox="0 0 760 220" role="img" aria-labelledby="title desc">
  <title id="title">USTC Table Mining Logo</title>
  <desc id="desc">USTC Table Mining wordmark with a structured table mining symbol.</desc>
  <defs>
    <linearGradient id="icon-bg" x1="65" y1="28" x2="178" y2="164" gradientUnits="userSpaceOnUse">
      <stop offset="0" stop-color="#ffffff"/>
      <stop offset="1" stop-color="#effbf8"/>
    </linearGradient>
    <linearGradient id="signal" x1="72" y1="148" x2="178" y2="54" gradientUnits="userSpaceOnUse">
      <stop offset="0" stop-color="#0f766e"/>
      <stop offset="1" stop-color="#e88a1a"/>
    </linearGradient>
  </defs>
  <rect x="52" y="26" width="136" height="136" rx="24" fill="url(#icon-bg)" stroke="#0f766e" stroke-width="7"/>
  <path d="M77 62H163M77 91H163M77 120H163M77 149H163M77 62V149M106 62V149M135 62V149M163 62V149" fill="none" stroke="#202020" stroke-width="5.4" stroke-linecap="round"/>
  <path d="M83 138L109 102L133 114L161 73" fill="none" stroke="url(#signal)" stroke-width="9" stroke-linecap="round" stroke-linejoin="round"/>
  <circle cx="83" cy="138" r="8" fill="#ffffff" stroke="#0f766e" stroke-width="4"/>
  <circle cx="109" cy="102" r="8" fill="#ffffff" stroke="#0f766e" stroke-width="4"/>
  <circle cx="133" cy="114" r="8" fill="#ffffff" stroke="#e88a1a" stroke-width="4"/>
  <circle cx="161" cy="73" r="8" fill="#ffffff" stroke="#e88a1a" stroke-width="4"/>
  <text x="218" y="90" fill="#111111" font-family="Arial, Helvetica, sans-serif" font-size="44" font-weight="800" letter-spacing="0">USTC</text>
  <text x="218" y="139" fill="#0f766e" font-family="Arial, Helvetica, sans-serif" font-size="48" font-weight="800" letter-spacing="0">Table Mining</text>
  <path d="M220 164H612" stroke="#e88a1a" stroke-width="5" stroke-linecap="round"/>
  <text x="220" y="190" fill="#4a4a4a" font-family="Arial, Helvetica, sans-serif" font-size="19" font-weight="600" letter-spacing="0">Scientific Tables · Office Spreadsheet Agents</text>
</svg>
